<?xml version="1.0" encoding="UTF-8"?>
<svg width="800px" height="800px" viewBox="0 0 800 800" version="1.1" xmlns="http://www.w3.org/2000/svg">
    <g stroke="none" stroke-width="1" fill="none" fill-rule="evenodd">
        <!-- Globe Base -->
        <circle fill="#E8F4FF" cx="400" cy="400" r="360"/>
        
        <!-- Meridians -->
        <path d="M400,40 Q640,400 400,760" stroke="#2B4380" stroke-width="2" opacity="0.3"/>
        <path d="M400,40 Q160,400 400,760" stroke="#2B4380" stroke-width="2" opacity="0.3"/>
        <path d="M40,400 L760,400" stroke="#2B4380" stroke-width="2" opacity="0.3"/>
        <path d="M400,40 L400,760" stroke="#2B4380" stroke-width="2" opacity="0.3"/>
        
        <!-- Parallels -->
        <circle stroke="#2B4380" stroke-width="2" opacity="0.3" cx="400" cy="400" r="280"/>
        <circle stroke="#2B4380" stroke-width="2" opacity="0.3" cx="400" cy="400" r="200"/>
        <circle stroke="#2B4380" stroke-width="2" opacity="0.3" cx="400" cy="400" r="120"/>
        
        <!-- Continents (Simplified) -->
        <path d="M320,200 Q400,180 480,240 Q520,280 500,320 Q460,340 420,300 Q380,280 320,200" fill="#2B4380" opacity="0.8"/>
        <path d="M200,400 Q280,380 320,420 Q340,460 300,500 Q260,520 220,480 Q200,440 200,400" fill="#2B4380" opacity="0.8"/>
        <path d="M500,500 Q580,480 620,520 Q640,560 600,600 Q560,620 520,580 Q500,540 500,500" fill="#2B4380" opacity="0.8"/>
    </g>
</svg>